:SAMPLES-PER-SECOND 24
:FULLY-SPECIFIED
:DEGREES
199
root  -15.0534 38.7192 22.4776 -42.9236 43.4947 -28.8221
RightUpLeg  -51.1855 -2.4622 -35.5123
RightLeg  32.9929 -15.2785 -10.6655
RightFoot  -18.6246 -0.0967401 0.46856
RightToes  -2.08645e-008 3.77894e-005 6.81332e-007
Spine  24.1444 -0.215543 8.88142
Spine1  7.39627 -0.686673 12.6112
HEad  -34.1234 -31.8329 20.8267
LeftShoulder1  6.74512 -12.8673 -35.1749
LeftArm  1.86714 12.7571 -25.2778
LeftForeArm  149.404 -74.367 -142.21
LeftHand  -0.689904 -0.164845 14.4936
RightShoulder  3.11264 5.56976 28.3557
RightArm  8.41339 26.0332 25.6947
RightForeArm  109.706 80.6188 93.4358
RightHand  -0.419719 9.57891 -3.64169
LeftUpLeg  1.12963 2.68696 15.2511
LeftLeg  34.22 15.9226 11.6763
LeftFoot  -12.9884 0.140893 4.28639
LeftToes  1.24767e-006 1.47042e-008 1.32732e-009
200
root  -14.9936 39.0094 22.0995 -32.4346 37.1317 -21.5771
RightUpLeg  -46.4124 -0.532909 -27.6109
RightLeg  30.266 -13.4602 -8.5712
RightFoot  -17.6435 0.0212979 2.59047
RightToes  -2.08645e-008 3.77894e-005 6.81332e-007
Spine  20.6517 0.281133 5.36719
Spine1  8.0544 -1.38478 13.0458
HEad  -29.2307 -23.6613 16.0569
LeftShoulder1  6.94247 -12.9568 -36.1327
LeftArm  -1.71808 14.3974 -29.7396
LeftForeArm  142.518 -75.8026 -136.945
LeftHand  -0.715422 -0.446344 14.3292
RightShoulder  3.73173 6.2706 32.3004
RightArm  8.43083 10.8137 24.3034
RightForeArm  85.2338 79.9634 67.4905
RightHand  -0.360812 8.83411 -3.33565
LeftUpLeg  -0.751751 8.97415 13.5053
LeftLeg  31.0103 18.4399 11.9239
LeftFoot  -10.589 0.0370987 3.77035
LeftToes  1.24767e-006 1.47042e-008 1.32732e-009
201
root  -14.8522 39.6878 21.8368 -26.6904 33.1619 -19.6201
RightUpLeg  -35.7599 -1.97078 -19.371
RightLeg  24.9647 -15.1559 -7.75573
RightFoot  -15.8953 0.0139026 3.02461
RightToes  -2.08645e-008 3.77894e-005 6.81332e-007
Spine  18.0723 -1.16333 3.03408
Spine1  7.25157 -4.37821 16.1245
HEad  -25.2431 -16.1653 11.2699
LeftShoulder1  6.68868 -12.6524 -35.3759
LeftArm  -2.60197 16.9092 -33.4843
LeftForeArm  145.175 -74.3405 -141.5
LeftHand  -0.675983 -0.690581 13.0217
RightShoulder  4.04856 6.54502 34.3997
RightArm  6.20366 -5.80553 19.6154
RightForeArm  70.5066 78.6117 55.2589
RightHand  -0.572561 8.38824 -5.19348
LeftUpLeg  -0.895118 9.16572 12.1258
LeftLeg  24.3066 23.9412 11.6433
LeftFoot  -7.73819 -0.0666655 3.58927
LeftToes  1.24767e-006 1.47042e-008 1.32732e-009
202
root  -14.9598 40.1963 21.8018 -19.3917 28.8649 -16.1609
RightUpLeg  -28.3069 -1.5948 -14.6817
RightLeg  23.2393 -14.8478 -7.08045
RightFoot  -14.5262 0.00518586 3.72702
RightToes  -2.08645e-008 3.77894e-005 6.81332e-007
Spine  15.0051 -1.97987 -1.3094
Spine1  6.77329 -7.00581 20.1316
HEad  -23.6597 -9.63907 8.53119
LeftShoulder1  5.99578 -11.8975 -32.9323
LeftArm  -0.573097 18.5609 -33.5771
LeftForeArm  153.471 -71.212 -149.252
LeftHand  -0.576565 -0.72554 11.0676
RightShoulder  3.96603 6.43842 34.0043
RightArm  2.89041 -20.0572 13.6719
RightForeArm  60.2209 77.2784 48.2014
RightHand  -0.372748 7.996 -3.5989
LeftUpLeg  -2.31205 8.7265 9.68631
LeftLeg  18.084 29.1905 10.1
LeftFoot  -5.4585 -0.099185 2.56922
LeftToes  1.24767e-006 1.47042e-008 1.32732e-009
203
root  -15.3144 40.3084 21.8117 -12.9422 22.5366 -11.9933
RightUpLeg  -22.4789 0.756763 -11.7683
RightLeg  24.9721 -11.9304 -6.20216
RightFoot  -12.8698 -0.0209681 4.74032
RightToes  -2.08645e-008 3.77894e-005 6.81332e-007
Spine  13.0345 -2.3155 -5.20469
Spine1  6.29361 -8.21891 21.8101
HEad  -23.2865 -3.73487 6.85481
LeftShoulder1  5.26737 -11.0891 -30.0827
LeftArm  3.74199 19.0282 -29.3103
LeftForeArm  158.802 -68.024 -154.501
LeftHand  -0.539561 -0.986375 9.96553
RightShoulder  3.4614 5.86957 31.0311
RightArm  0.738076 -30.7529 8.21332
RightForeArm  51.0332 75.283 40.1157
RightHand  -0.460038 7.46744 -4.50604
LeftUpLeg  -4.11048 8.84346 7.7984
LeftLeg  15.2011 34.9496 8.52507
LeftFoot  -4.58803 -0.128359 2.63856
LeftToes  1.24767e-006 1.47042e-008 1.32732e-009
204
root  -15.7684 40.134 21.6573 -8.50214 14.1694 -8.77399
RightUpLeg  -17.6083 1.11682 -8.83516
RightLeg  29.7749 -10.0721 -6.40538
RightFoot  -8.54365 -0.108978 2.75763
RightToes  -2.08645e-008 3.77894e-005 6.81332e-007
Spine  12.6297 -2.38026 -6.1823
Spine1  6.29163 -8.12459 20.2298
HEad  -24.2818 2.32469 5.67532
LeftShoulder1  4.69977 -10.4321 -27.6571
LeftArm  8.22438 19.2577 -22.0696
LeftForeArm  161.141 -64.8675 -158.123
LeftHand  -0.485245 -1.54409 8.29656
RightShoulder  2.964 5.24881 27.9058
RightArm  0.778656 -37.5182 2.43021
RightForeArm  47.5264 74.3581 37.3317
RightHand  -0.550141 7.18834 -5.41453
LeftUpLeg  -6.82664 11.9079 7.05043
LeftLeg  17.5196 40.0743 10.0631
LeftFoot  -4.00257 -0.175702 3.11971
LeftToes  1.24767e-006 1.47042e-008 1.32732e-009
205
root  -16.2142 39.8062 21.4103 -5.63147 4.70944 -7.29233
RightUpLeg  -12.6254 -0.724344 -6.16027
RightLeg  35.6279 -9.71284 -7.65263
RightFoot  -4.14107 -0.390287 5.30641
RightToes  -2.08645e-008 3.77894e-005 6.81332e-007
Spine  13.2455 -2.46687 -5.35516
Spine1  7.45776 -7.97816 18.3159
HEad  -26.3464 9.75537 4.22095
LeftShoulder1  4.20583 -9.83119 -25.3849
LeftArm  9.8265 21.9074 -16.0885
LeftForeArm  161.256 -63.4296 -159.432
LeftHand  -0.424925 -1.96805 6.89528
RightShoulder  2.62325 4.83492 25.4079
RightArm  1.5203 -39.52 -1.89528
RightForeArm  50.071 75.348 40.6434
RightHand  -0.550878 7.14134 -5.44665
LeftUpLeg  -11.3761 23.3119 6.40914
LeftLeg  23.3093 36.6665 15.345
LeftFoot  -3.5679 -0.103023 1.83486
LeftToes  1.24767e-006 1.47042e-008 1.32732e-009
206
root  -16.7231 39.0708 21.258 -2.69861 -4.75089 -6.84167
RightUpLeg  -6.75114 -3.30264 -5.41481
RightLeg  35.2743 -7.7383 -6.09532
RightFoot  -7.96217 -0.424399 12.4985
RightToes  -2.08645e-008 3.77894e-005 6.81332e-007
Spine  14.0195 -2.57956 -4.91431
Spine1  7.47055 -7.85645 17.4061
HEad  -28.1978 17.8526 1.55203
LeftShoulder1  4.07514 -9.85222 -24.3144
LeftArm  10.0665 26.922 -12.8065
LeftForeArm  158.721 -64.5941 -158.127
LeftHand  -0.438381 -1.9651 7.11
RightShoulder  2.36035 4.48184 23.4063
RightArm  1.40141 -39.6787 -4.62085
RightForeArm  62.3807 78.0167 53.7018
RightHand  -0.37615 7.39767 -3.76966
LeftUpLeg  -17.9457 27.762 7.06286
LeftLeg  35.4884 35.808 24.4011
LeftFoot  -4.21121 -0.0574888 1.32938
LeftToes  1.24767e-006 1.47042e-008 1.32732e-009
207
root  -17.1655 38.0597 21.0579 0.945251 -15.7243 -7.67175
RightUpLeg  -6.45089 -5.43894 -5.34584
RightLeg  32.4408 -0.362388 -0.440237
RightFoot  -17.2535 0.528645 13.0273
RightToes  -2.08645e-008 3.77894e-005 6.81332e-007
Spine  14.9819 -2.20421 -2.79098
Spine1  6.60403 -6.48471 14.7534
HEad  -31.6978 25.2554 -2.57129
LeftShoulder1  4.49884 -10.5609 -25.8458
LeftArm  8.69585 30.4257 -10.6422
LeftForeArm  154.9 -65.931 -156.402
LeftHand  -0.448483 -1.52697 7.69854
RightShoulder  2.32156 4.33206 23.4827
RightArm  -1.88202 -38.6958 -5.78833
RightForeArm  85.3662 80.0524 78.0286
RightHand  -0.509798 7.10939 -5.09439
LeftUpLeg  -23.7468 28.2838 9.99387
LeftLeg  47.3134 31.4827 31.4651
LeftFoot  -4.7099 -0.0833945 1.94846
LeftToes  1.24767e-006 1.47042e-008 1.32732e-009
208
root  -17.2986 37.2446 20.862 4.75848 -29.1121 -10.0842
RightUpLeg  -13.9821 -2.6574 -3.43901
RightLeg  36.0496 6.00349 4.45746
RightFoot  -20.6625 0.465057 7.18383
RightToes  -2.08645e-008 3.77894e-005 6.81332e-007
Spine  16.2246 -1.00694 -0.924313
Spine1  8.14872 -4.6759 12.7446
HEad  -38.0004 32.478 -8.60942
LeftShoulder1  5.449 -11.5281 -30.2142
LeftArm  1.35961 29.8939 -11.2201
LeftForeArm  151.496 -67.559 -154.227
LeftHand  -0.502959 -1.05985 9.20168
RightShoulder  2.4628 4.5066 24.664
RightArm  -9.97014 -31.8982 -0.419277
RightForeArm  83.5185 79.9679 75.742
RightHand  -0.735238 6.25611 -7.62109
LeftUpLeg  -22.9836 25.5066 16.2814
LeftLeg  52.9136 24.8304 31.1485
LeftFoot  -6.18951 0.0980127 -1.56657
LeftToes  1.24767e-006 1.47042e-008 1.32732e-009
